<?xml version="1.0" encoding="utf-8"?>
<!-- Generator: Adobe Illustrator 19.2.0, SVG Export Plug-In . SVG Version: 6.00 Build 0)  -->
<svg version="1.1" id="Layer_1" xmlns="http://www.w3.org/2000/svg" xmlns:xlink="http://www.w3.org/1999/xlink" x="0px" y="0px"
	 viewBox="0 0 133.7 133.7" style="enable-background:new 0 0 133.7 133.7;" xml:space="preserve">
<style type="text/css">
	.st0{fill:#3C3F50;}
	.st1{fill:#FFFFFF;}
</style>
<path class="st0" d="M66.8,0C29.9,0,0,29.9,0,66.8s29.9,66.8,66.8,66.8s66.8-29.9,66.8-66.8C133.7,29.9,103.8,0,66.8,0z"/>
<path class="st1" d="M91.3,86.1L91.3,86.1c-0.1,0.9-0.5,1.7-1.1,2.3l0,0l-0.1,0.1c0,0-0.1,0-0.1,0.1l0,0l-0.1,0.1l-0.1,0.1L69.2,103
	l0,0c-0.6,0.5-1.3,0.8-2.2,0.8h-0.1h-0.1c-0.8,0-1.6-0.3-2.2-0.8l0,0L43.7,88.6l0,0l-0.2-0.1v-0.1c-0.6-0.6-1-1.3-1-2.2v-0.1v-1
	V38.3l0,0c0-1,0.8-1.8,1.8-1.8c0.5,0,0.9,0.2,1.2,0.4l20.7,13.5c0,0,0.3,0.3,0.7,0.2c0.4,0,0.7-0.2,0.7-0.2l20.7-13.5
	c0.3-0.3,0.7-0.4,1.2-0.4c1,0,1.8,0.8,1.8,1.8l0,0v47v0.1c0,0.2,0,0.3,0,0.5L91.3,86.1L91.3,86.1z"/>
<path id="XMLID_6_" class="st0" d="M83.9,50.1c-0.4-0.3-0.8-0.2-1.1-0.1l-14.1,8.6l0,0c-0.5,0.3-1.1,0.5-1.8,0.5
	c-0.7,0-1.4-0.2-1.9-0.6l-13.7-8.3c0,0-0.7-0.5-1.4,0c-0.5,0.3-0.5,0.8-0.6,1v32.7c0,0.1,0,0.3,0.2,0.5c0.2,0.3,0.4,0.4,0.4,0.4
	l16.2,10.6c0,0,0.3,0.2,0.7,0.2c0.5,0,0.7-0.2,0.7-0.2l16.3-10.7c0,0,0.3-0.2,0.4-0.4c0.1-0.2,0.1-0.6,0.1-0.6V51.1
	C84.4,50.9,84.3,50.4,83.9,50.1z M66.8,85.2L66.8,85.2c-0.1,0.7-0.6,1.2-1.3,1.2c-0.2,0-0.5-0.1-0.7-0.2l0,0l0,0l0,0l-8-5
	c-0.1-0.1-0.3-0.1-0.4-0.2c-0.2-0.3-0.3-0.6-0.3-0.8l0,0V63.5l0,0l0,0l0,0l0,0c0-0.7,0.6-1.2,1.3-1.2c0.3,0,0.5,0.1,0.7,0.2l8,5.1
	l0,0c0.3,0.2,0.6,0.6,0.6,1l0,0L66.8,85.2L66.8,85.2z"/>
</svg>
